# xmcd
#
# Track frame offsets:
# 150
# 19021
# 34906
# 52258
# 68260
# 83392
#
# Disc length: 1363 seconds
#
#
# Revision: 0
# Processed by: cddbd v1.5.2PL0 Copyright (c) Steve Scherf et al.
# Submitted via: FreeRIP 2.944 
#
DISCID=3e055106
DTITLE=diversos - Sunshine 
DYEAR=2008
DGENRE=sertaneja
TTITLE0=Bokaloka - Arrebenta Coração
TTITLE1=Cezar e Paulinho/Xandy - Na pegada
TTITLE2=Cezar e Paulinho - Faltou coragem
TTITLE3=Gian e Giovani - Vai pescar moçada
TTITLE4=Harmonia do Samba - Batida de Rua
TTITLE5=Harmonia do Samba - Paixão verdadeira
EXTD=
EXTT0=
EXTT1=
EXTT2=
EXTT3=
EXTT4=
EXTT5=
PLAYORDER=
